<svg width="25" height="24" viewBox="0 0 25 24" fill="none" xmlns="http://www.w3.org/2000/svg">
<path fill-rule="evenodd" clip-rule="evenodd" d="M7.45136 11.8803C7.45136 9.16203 9.66201 6.95137 12.3803 6.95137C15.0986 6.95137 17.3092 9.16203 17.3092 11.8803C17.3092 14.5986 15.0986 16.8092 12.3803 16.8092C9.66201 16.8092 7.45136 14.5986 7.45136 11.8803ZM9.16957 11.8803C9.16957 13.6503 10.6103 15.091 12.3803 15.091C14.1503 15.091 15.591 13.6503 15.591 11.8803C15.591 10.1103 14.1503 8.66957 12.3803 8.66957C10.6103 8.66957 9.16957 10.1103 9.16957 11.8803Z" fill="#292D32"/>
<path fill-rule="evenodd" clip-rule="evenodd" d="M24.0122 10.4407C24.0128 10.0157 23.7022 9.65427 23.2821 9.59066L20.7245 9.20364C20.6041 8.84761 20.4602 8.49909 20.2938 8.16048L21.8279 6.07987C22.0798 5.73805 22.0439 5.26311 21.7439 4.96258L19.5373 2.75617C19.2372 2.45666 18.7627 2.4201 18.4203 2.67241L16.3483 4.19983C16.0066 4.03029 15.6544 3.88374 15.2943 3.7612L14.9096 1.21821C14.846 0.798138 14.4852 0.48753 14.0602 0.48753H10.9403C10.5153 0.48753 10.1544 0.79817 10.0909 1.21824L9.70614 3.76122C9.34602 3.88381 8.99388 4.03045 8.65223 4.19988L6.5801 2.67238C6.23822 2.4204 5.76339 2.45594 5.46283 2.75651L3.25674 4.96259C2.95662 5.26272 2.92051 5.73782 3.17266 6.07994L4.70662 8.16048C4.54023 8.49909 4.39632 8.84761 4.27599 9.20364L1.71843 9.59065C1.29836 9.6542 0.987762 10.015 0.987762 10.4401V13.5599C0.987762 13.9848 1.29823 14.3457 1.71819 14.4093L4.29179 14.7988C4.41204 15.1485 4.55474 15.4904 4.71897 15.8223L3.17237 17.9201C2.92007 18.2625 2.95699 18.7373 3.2565 19.0374L5.46259 21.2435C5.76321 21.5444 6.23836 21.5793 6.57991 21.3276L8.6863 19.7748C9.01511 19.936 9.35349 20.0761 9.69916 20.194L10.0906 22.7818C10.1542 23.2019 10.515 23.5125 10.9401 23.5125H14.0599C14.485 23.5125 14.8458 23.2018 14.9093 22.7818L15.3008 20.194C15.6465 20.0761 15.9849 19.936 16.3137 19.7748L18.4201 21.3276C18.7624 21.5799 19.2373 21.543 19.5374 21.2435L21.7437 19.0374C22.0438 18.7374 22.0798 18.2619 21.8273 17.9197L20.2811 15.8224C20.4454 15.4904 20.5881 15.1485 20.7083 14.7988L23.2818 14.4093C23.7018 14.3457 24.0122 13.9848 24.0122 13.5599V10.4407ZM18.8447 19.5064L20.0059 18.3452L18.5759 16.4055C18.3725 16.1298 18.3526 15.76 18.5242 15.4643C18.8268 14.9423 19.0599 14.3841 19.217 13.8051C19.3063 13.477 19.5811 13.2317 19.9177 13.1807L22.2943 12.8211V11.5075V11.179L19.9305 10.8214C19.593 10.77 19.3162 10.5236 19.2284 10.1919C19.0738 9.60859 18.8411 9.04412 18.5364 8.51437C18.3662 8.2185 18.3876 7.85039 18.5896 7.57633L20.0059 5.65505L18.8447 4.4938L16.9302 5.90511C16.656 6.1065 16.2858 6.12954 15.9883 5.956C15.4576 5.64782 14.8906 5.412 14.3033 5.25478C13.9732 5.16648 13.7269 4.8909 13.6759 4.55326L13.3208 2.20549H11.6787L11.3236 4.55306C11.2726 4.89071 11.0264 5.16644 10.6963 5.25475L9.01079 5.95626C8.71428 6.12855 8.3448 6.10785 8.06964 5.90534L6.15481 4.4938L4.99357 5.65505L6.40988 7.57626C6.61189 7.85037 6.63334 8.21863 6.46303 8.51452C6.15825 9.04409 5.9257 9.60849 5.77114 10.1919C5.68347 10.523 5.40742 10.7705 5.06873 10.8215L2.70525 11.179V12.8211L5.08178 13.1807C5.41806 13.2316 5.69311 13.476 5.78249 13.8049C5.93959 14.384 6.17271 14.9426 6.47532 15.4643C6.64724 15.7607 6.62636 16.13 6.424 16.405L4.99358 18.3452L6.1548 19.5064L8.10163 18.0712C8.37532 17.8701 8.74372 17.848 9.03938 18.0179C9.56028 18.3171 10.1161 18.5471 10.6907 18.7012C11.0197 18.7899 11.2659 19.065 11.3169 19.4025L11.6787 21.7947H13.3208L13.6826 19.4026C13.7336 19.0645 13.9807 18.7896 14.3094 18.701C14.8841 18.5469 15.4393 18.3171 15.9602 18.0178C16.2563 17.8475 16.6243 17.87 16.8979 18.0712L18.8447 19.5064Z" fill="#292D32"/>
</svg>
